<mxfile host="Electron" modified="2023-11-15T10:55:18.456Z" agent="Mozilla/5.0 (Windows NT 10.0; Win64; x64) AppleWebKit/537.36 (KHTML, like Gecko) draw.io/22.0.3 Chrome/114.0.5735.289 Electron/25.8.4 Safari/537.36" etag="I_2aMglt0zAJaLb2iNW7" version="22.0.3" type="device">
  <diagram name="Page-1" id="bPTyWkngqj8DdvgRhhLR">
    <mxGraphModel dx="1036" dy="614" grid="1" gridSize="10" guides="1" tooltips="1" connect="1" arrows="1" fold="1" page="1" pageScale="1" pageWidth="827" pageHeight="1169" math="0" shadow="0">
      <root>
        <mxCell id="0" />
        <mxCell id="1" parent="0" />
        <mxCell id="jFt1MawlYl7MOYW-hrXE-1" value="" style="rounded=0;whiteSpace=wrap;html=1;" vertex="1" parent="1">
          <mxGeometry x="80" y="40" width="650" height="550" as="geometry" />
        </mxCell>
        <mxCell id="jFt1MawlYl7MOYW-hrXE-2" value="Richard" style="rounded=0;whiteSpace=wrap;html=1;" vertex="1" parent="1">
          <mxGeometry x="240" y="150" width="370" height="60" as="geometry" />
        </mxCell>
        <mxCell id="jFt1MawlYl7MOYW-hrXE-3" value="Portfolio website" style="rounded=0;whiteSpace=wrap;html=1;" vertex="1" parent="1">
          <mxGeometry x="240" y="285" width="370" height="300" as="geometry" />
        </mxCell>
        <mxCell id="jFt1MawlYl7MOYW-hrXE-4" value="Navbar" style="rounded=0;whiteSpace=wrap;html=1;" vertex="1" parent="1">
          <mxGeometry x="80" y="40" width="650" height="60" as="geometry" />
        </mxCell>
        <mxCell id="jFt1MawlYl7MOYW-hrXE-5" value="" style="rounded=0;whiteSpace=wrap;html=1;" vertex="1" parent="1">
          <mxGeometry x="80" y="40" width="120" height="60" as="geometry" />
        </mxCell>
      </root>
    </mxGraphModel>
  </diagram>
</mxfile>
